<?xml version="1.0" encoding="UTF-8" standalone="no"?>
<svg
   xmlns:dc="http://purl.org/dc/elements/1.1/"
   xmlns:cc="http://creativecommons.org/ns#"
   xmlns:rdf="http://www.w3.org/1999/02/22-rdf-syntax-ns#"
   xmlns:svg="http://www.w3.org/2000/svg"
   xmlns="http://www.w3.org/2000/svg"
   version="1.1"
   id="svg7041"
   viewBox="0 0 715.74806 187.07845"
   height="5.2797699cm"
   width="20.200001cm">
  <defs
     id="defs7043">
    <clipPath
       id="clipPath6178"
       clipPathUnits="userSpaceOnUse">
      <path
         id="path6180"
         d="m 40.225,523.188 138.331,0 0,35.237 -138.331,0 0,-35.237 z" />
    </clipPath>
  </defs>
  <metadata
     id="metadata7046">
    <rdf:RDF>
      <cc:Work
         rdf:about="">
        <dc:format>image/svg+xml</dc:format>
        <dc:type
           rdf:resource="http://purl.org/dc/dcmitype/StillImage" />
        <dc:title></dc:title>
      </cc:Work>
    </rdf:RDF>
  </metadata>
  <g
     transform="translate(-10.832163,-350.06287)"
     id="layer1">
    <g
       id="g6174"
       transform="matrix(5.1316169,0,0,-5.1316169,-192.5036,3218.3985)">
      <g
         clip-path="url(#clipPath6178)"
         id="g6176">
        <g
           transform="translate(100.9147,543.1677)"
           id="g6182">
          <path
             id="path6184"
             style="fill:#000000;fill-opacity:1;fill-rule:evenodd;stroke:none"
             d="M 0,0 -3.695,6.594 -7.388,-0.003 C -5.082,-1.182 -2.305,-1.188 0,0 m 7.656,-5.113 0,0 C 8.604,-7.726 5.51,-9.075 3.966,-7.091 l -2.175,3.897 c -3.355,-1.573 -7.633,-1.563 -10.969,0 l -2.108,-3.772 c -1.521,-2.247 -4.812,-0.783 -3.682,1.981 l 9.514,17.108 c 0.95,1.357 2.775,1.236 3.611,-0.148 L 7.656,-5.113 Z m 2.727,-0.774 0,0 0.012,17.04 c 0.303,2.086 2.398,2.484 3.78,1.13 l 13.027,-12.886 0,11.503 c 0.141,2.868 3.99,2.948 4.289,0 L 31.478,-6.144 C 31.245,-8.279 29.005,-8.608 27.607,-7.14 L 14.667,5.651 14.653,-6.144 c -0.371,-2.438 -3.612,-2.582 -4.224,-0.21 l -0.046,0.467 z m 32.007,-0.302 0,0 0,14.98 -6.504,0.011 c -2.644,0.411 -2.537,4.005 0.25,4.277 l 17.044,0.002 c 2.553,-0.392 2.529,-3.887 0,-4.278 L 46.676,8.791 46.663,-6.144 C 46.346,-8.697 42.714,-8.736 42.39,-6.189 m 24.196,15.375 0,0 c 3.677,0 6.678,-3.001 6.678,-6.682 0,-3.677 -3.001,-6.675 -6.678,-6.675 -3.678,0 -6.679,2.998 -6.679,6.675 0,3.681 3.001,6.682 6.679,6.682 m 0,4.233 0,0 c 6.009,0 10.911,-4.901 10.911,-10.915 0,-6.006 -4.902,-10.909 -10.911,-10.909 -6.009,0 -10.911,4.903 -10.911,10.909 0,6.014 4.902,10.915 10.911,10.915 m -98.679,-18.43 0,0 c -0.627,1.701 1.437,3.346 3.087,2.044 1.504,-1.1 2.378,-1.869 4.821,-1.774 1.74,0.073 3.809,1.743 2.907,3.599 -0.571,1.179 -2.409,1.711 -3.551,2.21 -1.764,0.771 -3.619,1.3 -4.977,2.719 -1.989,2.079 -2.184,4.513 -0.626,6.872 2.627,3.207 7.273,3.415 10.882,1.675 0.526,-0.27 1.036,-0.549 1.475,-0.94 1.601,-1.743 -0.642,-3.756 -2.636,-2.693 -1.711,0.85 -3.721,1.53 -5.587,0.695 -2.013,-0.902 -1.325,-3.107 0.347,-3.835 1.472,-0.824 3.257,-1.328 4.793,-2.023 1.958,-0.923 4.035,-2.571 4.31,-4.861 0.386,-3.19 -2.083,-5.8 -5.074,-6.675 -1.026,-0.277 -2.02,-0.411 -3.084,-0.409 -2.471,0.06 -5.932,1.065 -7.087,3.396" />
        </g>
        <g
           transform="translate(76.5759,530.489)"
           id="g6186">
          <path
             id="path6188"
             style="fill:#000000;fill-opacity:1;fill-rule:evenodd;stroke:none"
             d="m 0,0 0.846,0 1.033,-3.402 c 0.255,-0.949 0.401,-1.616 0.438,-2.001 0.012,0.327 0.115,0.847 0.308,1.558 L 3.745,0 l 0.851,0 0,-5.923 -0.504,0 0,4.491 c 0.009,0.475 0.02,0.836 0.035,1.085 l -0.03,0 C 4.013,-0.732 3.878,-1.276 3.693,-1.979 l -1.141,-3.944 -0.504,0 -1.15,3.914 C 0.875,-1.908 0.807,-1.643 0.694,-1.215 0.579,-0.7 0.514,-0.411 0.499,-0.347 l -0.039,0 c 0.026,-0.275 0.041,-0.722 0.044,-1.341 l 0,-4.235 L 0,-5.923 0,0 Z" />
        </g>
        <g
           transform="translate(82.9287,526.7528)"
           id="g6190">
          <path
             id="path6192"
             style="fill:#000000;fill-opacity:1;fill-rule:evenodd;stroke:none"
             d="m 0,0 c 0,-0.512 0.041,-0.907 0.122,-1.185 0.136,-0.471 0.416,-0.707 0.841,-0.707 0.547,0 0.852,0.382 0.916,1.145 l 0.482,0 C 2.358,-0.99 2.3,-1.244 2.187,-1.51 1.964,-2.028 1.551,-2.287 0.946,-2.287 c -0.573,0 -0.975,0.244 -1.206,0.733 -0.174,0.371 -0.261,0.889 -0.261,1.554 0,1.539 0.507,2.309 1.519,2.309 0.579,0 0.979,-0.26 1.202,-0.777 C 2.339,1.211 2.408,0.768 2.408,0.204 2.408,0.157 2.407,0.089 2.404,0 L 0,0 Z m 0.009,0.386 0,0 1.874,0 C 1.88,0.699 1.853,0.965 1.801,1.185 1.688,1.671 1.418,1.914 0.989,1.914 0.55,1.914 0.258,1.668 0.113,1.176 0.041,0.939 0.006,0.675 0.009,0.386" />
        </g>
        <g
           transform="translate(86.5128,528.9614)"
           id="g6194">
          <path
             id="path6196"
             style="fill:#000000;fill-opacity:1;fill-rule:evenodd;stroke:none"
             d="m 0,0 0.473,0 0,-0.178 C 0.473,-0.363 0.469,-0.509 0.46,-0.616 0.68,-0.139 1.043,0.1 1.549,0.1 2.064,0.1 2.384,-0.153 2.508,-0.659 2.748,-0.153 3.112,0.1 3.597,0.1 4.06,0.1 4.373,-0.072 4.535,-0.416 4.613,-0.587 4.652,-0.914 4.652,-1.397 l 0,-2.999 -0.504,0 0,3.007 c 0,0.388 -0.033,0.64 -0.099,0.756 -0.113,0.199 -0.3,0.299 -0.56,0.299 -0.258,0 -0.475,-0.098 -0.651,-0.295 C 2.696,-0.788 2.614,-0.971 2.591,-1.176 2.582,-1.251 2.578,-1.391 2.578,-1.597 l 0,-2.799 -0.504,0 0,2.812 -0.004,0.182 c 0,0.356 -0.025,0.589 -0.074,0.699 -0.107,0.246 -0.304,0.369 -0.59,0.369 -0.368,0 -0.631,-0.169 -0.79,-0.508 C 0.541,-0.998 0.503,-1.227 0.503,-1.527 l 0,-2.869 L 0,-4.396 0,0 Z" />
        </g>
        <g
           transform="translate(92.9912,530.489)"
           id="g6198">
          <path
             id="path6200"
             style="fill:#000000;fill-opacity:1;fill-rule:evenodd;stroke:none"
             d="m 0,0 0,-1.545 c 0,-0.309 -0.006,-0.539 -0.017,-0.69 0.22,0.538 0.587,0.808 1.102,0.808 0.506,0 0.872,-0.237 1.098,-0.708 0.165,-0.341 0.247,-0.855 0.247,-1.54 0,-1.566 -0.467,-2.348 -1.401,-2.348 -0.325,0 -0.592,0.113 -0.803,0.338 -0.119,0.13 -0.209,0.288 -0.269,0.473 0.008,-0.162 0.013,-0.305 0.013,-0.429 l 0,-0.282 -0.473,0 0,5.923 L 0,0 Z m 0.955,-1.844 0,0 c -0.371,0 -0.64,-0.199 -0.807,-0.595 -0.116,-0.272 -0.174,-0.7 -0.174,-1.284 0,-0.619 0.067,-1.069 0.2,-1.35 0.164,-0.356 0.422,-0.534 0.772,-0.534 0.373,0 0.638,0.202 0.794,0.604 0.116,0.295 0.174,0.742 0.174,1.341 0,0.607 -0.065,1.05 -0.196,1.327 -0.156,0.327 -0.41,0.491 -0.763,0.491" />
        </g>
        <g
           transform="translate(96.9485,526.7528)"
           id="g6202">
          <path
             id="path6204"
             style="fill:#000000;fill-opacity:1;fill-rule:evenodd;stroke:none"
             d="m 0,0 c 0,-0.512 0.04,-0.907 0.121,-1.185 0.136,-0.471 0.417,-0.707 0.842,-0.707 0.547,0 0.852,0.382 0.916,1.145 l 0.482,0 C 2.358,-0.99 2.3,-1.244 2.187,-1.51 1.964,-2.028 1.551,-2.287 0.946,-2.287 c -0.573,0 -0.975,0.244 -1.206,0.733 -0.174,0.371 -0.261,0.889 -0.261,1.554 0,1.539 0.507,2.309 1.519,2.309 0.579,0 0.979,-0.26 1.202,-0.777 C 2.339,1.211 2.408,0.768 2.408,0.204 2.408,0.157 2.407,0.089 2.404,0 L 0,0 Z m 0.009,0.386 0,0 1.874,0 C 1.881,0.699 1.853,0.965 1.801,1.185 1.688,1.671 1.418,1.914 0.989,1.914 0.55,1.914 0.257,1.668 0.113,1.176 0.04,0.939 0.006,0.675 0.009,0.386" />
        </g>
        <g
           transform="translate(100.5327,528.9614)"
           id="g6206">
          <path
             id="path6208"
             style="fill:#000000;fill-opacity:1;fill-rule:evenodd;stroke:none"
             d="m 0,0 0.473,0 0,-0.225 c 0,-0.258 -0.007,-0.45 -0.022,-0.578 0.165,0.307 0.307,0.511 0.426,0.612 0.208,0.171 0.452,0.256 0.733,0.256 0.035,0 0.095,-0.001 0.182,-0.004 l 0,-0.499 C 1.694,-0.435 1.635,-0.434 1.614,-0.434 1.351,-0.434 1.138,-0.49 0.976,-0.603 0.756,-0.759 0.612,-0.969 0.542,-1.232 0.516,-1.334 0.503,-1.501 0.503,-1.736 l 0,-2.66 L 0,-4.396 0,0 Z" />
        </g>
        <g
           transform="translate(107.1496,529.0615)"
           id="g6210">
          <path
             id="path6212"
             style="fill:#000000;fill-opacity:1;fill-rule:evenodd;stroke:none"
             d="M 0,0 C 0.55,0 0.944,-0.229 1.185,-0.686 1.37,-1.042 1.462,-1.58 1.462,-2.3 1.462,-3.049 1.354,-3.603 1.137,-3.962 1.004,-4.182 0.845,-4.341 0.66,-4.44 0.46,-4.544 0.214,-4.596 -0.078,-4.596 c -0.564,0 -0.965,0.239 -1.202,0.716 -0.18,0.356 -0.269,0.883 -0.269,1.58 0,0.787 0.124,1.361 0.373,1.723 C -0.91,-0.193 -0.518,0 0,0 m -0.039,-0.417 0,0 c -0.359,0 -0.621,-0.175 -0.785,-0.525 -0.139,-0.292 -0.209,-0.752 -0.209,-1.38 0,-0.645 0.074,-1.106 0.221,-1.384 0.165,-0.315 0.42,-0.473 0.764,-0.473 0.379,0 0.648,0.187 0.807,0.56 0.125,0.295 0.187,0.726 0.187,1.293 0,0.674 -0.074,1.157 -0.221,1.449 -0.157,0.307 -0.411,0.46 -0.764,0.46" />
        </g>
        <g
           transform="translate(109.319,528.9614)"
           id="g6214">
          <path
             id="path6216"
             style="fill:#000000;fill-opacity:1;fill-rule:evenodd;stroke:none"
             d="m 0,0 0.625,0 c 0,0.391 0.003,0.641 0.011,0.751 0.007,0.11 0.028,0.215 0.063,0.317 0.104,0.321 0.4,0.481 0.889,0.481 0.119,0 0.224,-10e-4 0.317,-0.004 l 0,-0.425 C 1.688,1.12 1.553,1.117 1.501,1.111 1.293,1.082 1.176,0.962 1.15,0.751 1.135,0.673 1.128,0.422 1.128,0 l 0.751,0 0,-0.395 -0.751,0 0,-4.001 -0.503,0 0,4.001 L 0,-0.395 0,0 Z" />
        </g>
        <g
           transform="translate(114.7514,530.489)"
           id="g6218">
          <path
             id="path6220"
             style="fill:#000000;fill-opacity:1;fill-rule:evenodd;stroke:none"
             d="m 0,0 1.467,0 c 0.483,0 0.849,-0.079 1.097,-0.239 0.446,-0.286 0.669,-0.762 0.669,-1.427 0,-0.429 -0.1,-0.781 -0.3,-1.059 C 2.696,-3.055 2.353,-3.252 1.905,-3.315 1.76,-3.335 1.549,-3.346 1.271,-3.346 l -0.742,0 0,-2.577 L 0,-5.923 0,0 Z m 0.529,-0.434 0,0 0,-2.478 0.782,0 c 0.422,0 0.724,0.061 0.906,0.183 0.319,0.216 0.478,0.572 0.478,1.067 0,0.512 -0.172,0.871 -0.517,1.076 -0.17,0.102 -0.452,0.152 -0.846,0.152 l -0.803,0 z" />
        </g>
        <g
           transform="translate(120.3532,529.0615)"
           id="g6222">
          <path
             id="path6224"
             style="fill:#000000;fill-opacity:1;fill-rule:evenodd;stroke:none"
             d="M 0,0 C 0.55,0 0.944,-0.229 1.185,-0.686 1.37,-1.042 1.462,-1.58 1.462,-2.3 1.462,-3.049 1.354,-3.603 1.137,-3.962 1.004,-4.182 0.845,-4.341 0.66,-4.44 0.46,-4.544 0.214,-4.596 -0.078,-4.596 c -0.564,0 -0.965,0.239 -1.202,0.716 -0.179,0.356 -0.269,0.883 -0.269,1.58 0,0.787 0.124,1.361 0.373,1.723 C -0.91,-0.193 -0.518,0 0,0 m -0.039,-0.417 0,0 c -0.359,0 -0.62,-0.175 -0.785,-0.525 -0.139,-0.292 -0.209,-0.752 -0.209,-1.38 0,-0.645 0.074,-1.106 0.222,-1.384 0.164,-0.315 0.419,-0.473 0.763,-0.473 0.379,0 0.648,0.187 0.807,0.56 0.125,0.295 0.187,0.726 0.187,1.293 0,0.674 -0.074,1.157 -0.221,1.449 -0.156,0.307 -0.411,0.46 -0.764,0.46" />
        </g>
        <path
           id="path6226"
           style="fill:#000000;fill-opacity:1;fill-rule:evenodd;stroke:none"
           d="m 122.991,530.489 0.503,0 0,-5.923 -0.503,0 0,5.923 z" />
        <g
           transform="translate(125.3255,528.9614)"
           id="g6228">
          <path
             id="path6230"
             style="fill:#000000;fill-opacity:1;fill-rule:evenodd;stroke:none"
             d="m 0,0 0,-0.265 c 0,-0.191 -0.006,-0.348 -0.017,-0.473 0.06,0.197 0.15,0.359 0.269,0.486 0.22,0.235 0.497,0.352 0.833,0.352 0.257,0 0.492,-0.068 0.703,-0.204 0.443,-0.286 0.664,-0.956 0.664,-2.009 0,-1.589 -0.464,-2.383 -1.393,-2.383 -0.342,0 -0.603,0.105 -0.785,0.313 -0.096,0.107 -0.183,0.257 -0.261,0.451 0.012,-0.127 0.018,-0.344 0.018,-0.651 l 0,-1.493 -0.504,0 0,5.876 L 0,0 Z m 0.981,-0.317 0,0 C 0.755,-0.317 0.56,-0.399 0.395,-0.564 0.23,-0.726 0.117,-0.979 0.057,-1.323 0.022,-1.529 0.005,-1.81 0.005,-2.165 c 0,-0.654 0.067,-1.121 0.203,-1.402 0.162,-0.341 0.415,-0.512 0.76,-0.512 0.364,0 0.626,0.191 0.785,0.573 0.122,0.298 0.182,0.751 0.182,1.358 0,0.605 -0.063,1.043 -0.191,1.315 -0.162,0.344 -0.416,0.516 -0.763,0.516" />
        </g>
        <g
           transform="translate(129.465,530.489)"
           id="g6232">
          <path
             id="path6234"
             style="fill:#000000;fill-opacity:1;fill-rule:evenodd;stroke:none"
             d="m 0,0 0,-1.323 c 0,-0.435 -0.009,-0.712 -0.026,-0.834 0.243,0.486 0.623,0.73 1.141,0.73 0.284,0 0.521,-0.076 0.712,-0.226 C 2.044,-1.83 2.168,-2.105 2.2,-2.478 2.212,-2.596 2.217,-2.751 2.217,-2.942 l 0,-2.981 -0.503,0 0,2.855 C 1.714,-2.672 1.69,-2.41 1.64,-2.283 1.527,-2.002 1.299,-1.862 0.955,-1.862 0.72,-1.862 0.512,-1.945 0.33,-2.113 0.153,-2.278 0.049,-2.479 0.017,-2.717 0.006,-2.812 0,-2.951 0,-3.133 l 0,-2.79 -0.503,0 0,5.923 L 0,0 Z" />
        </g>
        <g
           transform="translate(132.8928,527.6769)"
           id="g6236">
          <path
             id="path6238"
             style="fill:#000000;fill-opacity:1;fill-rule:evenodd;stroke:none"
             d="m 0,0 c -0.003,0.376 0.061,0.665 0.191,0.868 0.223,0.344 0.602,0.517 1.137,0.517 0.599,0 0.986,-0.186 1.163,-0.556 0.072,-0.15 0.108,-0.445 0.108,-0.885 l 0,-2.157 c 0,-0.182 0.011,-0.308 0.031,-0.378 0.026,-0.104 0.101,-0.156 0.225,-0.156 0.038,0 0.087,0.007 0.148,0.022 l 0,-0.369 C 2.91,-3.129 2.808,-3.146 2.695,-3.146 c -0.376,0 -0.564,0.187 -0.564,0.56 l 0,0.113 C 1.92,-2.957 1.538,-3.198 0.985,-3.198 c -0.367,0 -0.642,0.103 -0.824,0.308 -0.2,0.223 -0.3,0.531 -0.3,0.924 0,0.414 0.118,0.729 0.352,0.946 0.104,0.093 0.24,0.171 0.408,0.234 0.089,0.035 0.276,0.09 0.56,0.165 0.341,0.093 0.558,0.16 0.65,0.2 0.148,0.067 0.233,0.177 0.256,0.33 0.012,0.07 0.018,0.168 0.018,0.295 0,0.26 -0.055,0.45 -0.165,0.569 C 1.804,0.917 1.596,0.99 1.315,0.99 0.968,0.99 0.729,0.872 0.599,0.638 0.521,0.493 0.48,0.281 0.477,0 L 0,0 Z m 2.122,-0.621 0,0 C 2.041,-0.727 1.831,-0.829 1.493,-0.924 1.181,-1.011 0.981,-1.072 0.894,-1.107 0.697,-1.19 0.56,-1.302 0.482,-1.441 0.412,-1.565 0.378,-1.731 0.378,-1.94 c 0,-0.561 0.245,-0.841 0.737,-0.841 0.408,0 0.702,0.192 0.881,0.577 0.075,0.165 0.113,0.4 0.113,0.707 l 0,0.447 c 0,0.217 0.004,0.36 0.013,0.429" />
        </g>
        <g
           transform="translate(136.8763,528.9614)"
           id="g6240">
          <path
             id="path6242"
             style="fill:#000000;fill-opacity:1;fill-rule:evenodd;stroke:none"
             d="m 0,0 0.473,0 0,-0.225 c 0,-0.258 -0.007,-0.45 -0.022,-0.578 0.165,0.307 0.307,0.511 0.425,0.612 0.209,0.171 0.453,0.256 0.734,0.256 0.035,0 0.095,-0.001 0.182,-0.004 l 0,-0.499 C 1.694,-0.435 1.634,-0.434 1.614,-0.434 1.351,-0.434 1.138,-0.49 0.976,-0.603 0.756,-0.759 0.612,-0.969 0.542,-1.232 0.516,-1.334 0.503,-1.501 0.503,-1.736 l 0,-2.66 L 0,-4.396 0,0 Z" />
        </g>
        <g
           transform="translate(139.6012,528.9614)"
           id="g6244">
          <path
             id="path6246"
             style="fill:#000000;fill-opacity:1;fill-rule:evenodd;stroke:none"
             d="m 0,0 0.473,0 0,-0.178 C 0.473,-0.363 0.468,-0.509 0.46,-0.616 0.68,-0.139 1.043,0.1 1.549,0.1 2.064,0.1 2.384,-0.153 2.508,-0.659 2.748,-0.153 3.111,0.1 3.597,0.1 4.06,0.1 4.372,-0.072 4.535,-0.416 4.613,-0.587 4.652,-0.914 4.652,-1.397 l 0,-2.999 -0.504,0 0,3.007 c 0,0.388 -0.033,0.64 -0.099,0.756 -0.113,0.199 -0.3,0.299 -0.56,0.299 -0.258,0 -0.475,-0.098 -0.651,-0.295 C 2.696,-0.788 2.614,-0.971 2.591,-1.176 2.582,-1.251 2.577,-1.391 2.577,-1.597 l 0,-2.799 -0.503,0 0,2.812 -0.004,0.182 c 0,0.356 -0.025,0.589 -0.074,0.699 -0.107,0.246 -0.304,0.369 -0.59,0.369 -0.368,0 -0.631,-0.169 -0.79,-0.508 C 0.541,-0.998 0.503,-1.227 0.503,-1.527 l 0,-2.869 L 0,-4.396 0,0 Z" />
        </g>
        <g
           transform="translate(145.4635,527.6769)"
           id="g6248">
          <path
             id="path6250"
             style="fill:#000000;fill-opacity:1;fill-rule:evenodd;stroke:none"
             d="m 0,0 c -0.003,0.376 0.061,0.665 0.191,0.868 0.223,0.344 0.602,0.517 1.137,0.517 0.599,0 0.986,-0.186 1.163,-0.556 0.072,-0.15 0.108,-0.445 0.108,-0.885 l 0,-2.157 c 0,-0.182 0.01,-0.308 0.031,-0.378 0.026,-0.104 0.101,-0.156 0.225,-0.156 0.038,0 0.087,0.007 0.148,0.022 l 0,-0.369 C 2.91,-3.129 2.808,-3.146 2.695,-3.146 c -0.376,0 -0.564,0.187 -0.564,0.56 l 0,0.113 C 1.919,-2.957 1.538,-3.198 0.985,-3.198 c -0.368,0 -0.642,0.103 -0.825,0.308 -0.199,0.223 -0.299,0.531 -0.299,0.924 0,0.414 0.117,0.729 0.351,0.946 0.105,0.093 0.241,0.171 0.409,0.234 0.089,0.035 0.276,0.09 0.559,0.165 0.342,0.093 0.558,0.16 0.651,0.2 0.148,0.067 0.233,0.177 0.256,0.33 0.012,0.07 0.018,0.168 0.018,0.295 0,0.26 -0.056,0.45 -0.165,0.569 C 1.804,0.917 1.595,0.99 1.315,0.99 0.968,0.99 0.729,0.872 0.599,0.638 0.521,0.493 0.48,0.281 0.477,0 L 0,0 Z m 2.122,-0.621 0,0 C 2.041,-0.727 1.831,-0.829 1.493,-0.924 1.18,-1.011 0.981,-1.072 0.894,-1.107 0.697,-1.19 0.56,-1.302 0.482,-1.441 0.412,-1.565 0.378,-1.731 0.378,-1.94 c 0,-0.561 0.245,-0.841 0.737,-0.841 0.408,0 0.702,0.192 0.881,0.577 0.075,0.165 0.113,0.4 0.113,0.707 l 0,0.447 c 0,0.217 0.004,0.36 0.013,0.429" />
        </g>
        <g
           transform="translate(153.6339,527.5859)"
           id="g6252">
          <path
             id="path6254"
             style="fill:#000000;fill-opacity:1;fill-rule:evenodd;stroke:none"
             d="m 0,0 1.901,0 0,-3.02 -0.417,0 0,0.434 c 0,0.156 0.005,0.371 0.013,0.646 C 1.413,-2.264 1.277,-2.521 1.089,-2.712 0.829,-2.984 0.488,-3.12 0.065,-3.12 c -1.212,0 -1.818,1.005 -1.818,3.016 0,0.998 0.129,1.736 0.386,2.213 0.318,0.596 0.825,0.894 1.519,0.894 0.7,0 1.189,-0.276 1.467,-0.829 C 1.746,1.919 1.818,1.611 1.836,1.25 l -0.53,0 C 1.292,1.562 1.224,1.825 1.102,2.04 0.903,2.393 0.585,2.569 0.148,2.569 c -0.518,0 -0.883,-0.25 -1.094,-0.751 -0.179,-0.419 -0.269,-1.073 -0.269,-1.961 0,-0.836 0.106,-1.47 0.317,-1.901 0.211,-0.428 0.555,-0.642 1.033,-0.642 0.361,0 0.648,0.133 0.859,0.399 0.211,0.269 0.34,0.65 0.386,1.141 0.017,0.191 0.026,0.428 0.026,0.712 L 0,-0.434 0,0 Z" />
        </g>
        <g
           transform="translate(156.8925,528.9614)"
           id="g6256">
          <path
             id="path6258"
             style="fill:#000000;fill-opacity:1;fill-rule:evenodd;stroke:none"
             d="m 0,0 0.473,0 0,-0.225 c 0,-0.258 -0.007,-0.45 -0.022,-0.578 0.165,0.307 0.307,0.511 0.426,0.612 0.208,0.171 0.452,0.256 0.733,0.256 0.035,0 0.096,-0.001 0.182,-0.004 l 0,-0.499 C 1.694,-0.435 1.635,-0.434 1.614,-0.434 1.351,-0.434 1.138,-0.49 0.976,-0.603 0.757,-0.759 0.612,-0.969 0.543,-1.232 0.516,-1.334 0.503,-1.501 0.503,-1.736 l 0,-2.66 L 0,-4.396 0,0 Z" />
        </g>
        <g
           transform="translate(160.8932,529.0615)"
           id="g6260">
          <path
             id="path6262"
             style="fill:#000000;fill-opacity:1;fill-rule:evenodd;stroke:none"
             d="M 0,0 C 0.55,0 0.945,-0.229 1.185,-0.686 1.37,-1.042 1.462,-1.58 1.462,-2.3 1.462,-3.049 1.354,-3.603 1.137,-3.962 1.004,-4.182 0.845,-4.341 0.66,-4.44 0.46,-4.544 0.214,-4.596 -0.078,-4.596 c -0.564,0 -0.965,0.239 -1.202,0.716 -0.18,0.356 -0.269,0.883 -0.269,1.58 0,0.787 0.124,1.361 0.373,1.723 C -0.91,-0.193 -0.518,0 0,0 m -0.039,-0.417 0,0 c -0.359,0 -0.62,-0.175 -0.785,-0.525 -0.139,-0.292 -0.209,-0.752 -0.209,-1.38 0,-0.645 0.074,-1.106 0.221,-1.384 0.165,-0.315 0.42,-0.473 0.764,-0.473 0.379,0 0.648,0.187 0.807,0.56 0.125,0.295 0.187,0.726 0.187,1.293 0,0.674 -0.074,1.157 -0.221,1.449 -0.157,0.307 -0.411,0.46 -0.764,0.46" />
        </g>
        <g
           transform="translate(163.5009,528.9614)"
           id="g6264">
          <path
             id="path6266"
             style="fill:#000000;fill-opacity:1;fill-rule:evenodd;stroke:none"
             d="m 0,0 0.503,0 0,-2.92 c 0,-0.304 0.025,-0.531 0.074,-0.682 0.101,-0.306 0.327,-0.46 0.677,-0.46 0.26,0 0.483,0.093 0.668,0.278 0.165,0.168 0.262,0.37 0.291,0.608 0.015,0.118 0.022,0.269 0.022,0.451 l 0,2.725 0.503,0 0,-4.396 -0.473,0 0,0.248 c 0,0.092 0.007,0.234 0.022,0.425 -0.24,-0.515 -0.631,-0.773 -1.172,-0.773 -0.598,0 -0.954,0.293 -1.067,0.877 C 0.016,-3.454 0,-3.219 0,-2.912 L 0,0 Z" />
        </g>
        <g
           transform="translate(168.0701,528.9614)"
           id="g6268">
          <path
             id="path6270"
             style="fill:#000000;fill-opacity:1;fill-rule:evenodd;stroke:none"
             d="m 0,0 0,-0.265 c 0,-0.191 -0.006,-0.348 -0.017,-0.473 0.06,0.197 0.15,0.359 0.269,0.486 0.22,0.235 0.497,0.352 0.833,0.352 0.257,0 0.492,-0.068 0.703,-0.204 0.443,-0.286 0.664,-0.956 0.664,-2.009 0,-1.589 -0.465,-2.383 -1.393,-2.383 -0.342,0 -0.603,0.105 -0.785,0.313 -0.096,0.107 -0.183,0.257 -0.261,0.451 0.012,-0.127 0.017,-0.344 0.017,-0.651 l 0,-1.493 -0.503,0 0,5.876 L 0,0 Z m 0.981,-0.317 0,0 C 0.755,-0.317 0.56,-0.399 0.395,-0.564 0.23,-0.726 0.117,-0.979 0.057,-1.323 0.022,-1.529 0.004,-1.81 0.004,-2.165 c 0,-0.654 0.068,-1.121 0.204,-1.402 0.162,-0.341 0.415,-0.512 0.76,-0.512 0.364,0 0.626,0.191 0.785,0.573 0.122,0.298 0.182,0.751 0.182,1.358 0,0.605 -0.063,1.043 -0.191,1.315 -0.162,0.344 -0.416,0.516 -0.763,0.516" />
        </g>
        <g
           transform="translate(60.0946,542.9725)"
           id="g6272">
          <path
             id="path6274"
             style="fill:#f68b1f;fill-opacity:1;fill-rule:nonzero;stroke:none"
             d="m 0,0 -4.045,0 c -0.37,0 -0.672,-0.304 -0.672,-0.672 l 0,-4.042 c 0,-1.132 -5.387,-1.132 -5.387,0 l 0,4.042 c 0,0.368 -0.305,0.672 -0.676,0.672 l -4.043,0 c -0.406,0 -0.664,0.706 -0.781,1.6 l -4.176,0 c 0.608,-6.314 5.952,-11.279 12.425,-11.279 6.473,0 11.815,4.965 12.424,11.279 l -4.294,0 C 0.665,0.706 0.405,0 0,0" />
        </g>
        <g
           transform="translate(45.2717,548.3601)"
           id="g6276">
          <path
             id="path6278"
             style="fill:#fdc489;fill-opacity:1;fill-rule:nonzero;stroke:none"
             d="m 0,0 4.042,0 c 0.372,0 0.677,0.343 0.677,0.71 l 0,4.009 c 0,1.131 5.387,1.131 5.387,0 l 0,-4.044 C 10.106,0.303 10.408,0 10.778,0 l 4.045,0 c 0.371,0 0.619,-0.596 0.745,-1.383 l 4.324,0 C 19.285,4.933 13.941,9.903 7.468,9.903 0.995,9.903 -4.349,4.933 -4.957,-1.383 l 4.211,0 C -0.621,-0.596 -0.372,0 0,0" />
        </g>
      </g>
    </g>
  </g>
</svg>
